<svg  viewBox="0 0 33 33" fill="none" xmlns="http://www.w3.org/2000/svg">
<path d="M8.7922 10.8974C9.26078 11.1602 9.84364 11.0688 10.2094 10.6804C11.8779 8.88701 14.2665 7.75613 16.9066 7.75613C19.558 7.75613 21.9352 8.87558 23.6038 10.6804C23.9695 11.0688 24.5524 11.1602 25.0209 10.8974L29.0552 8.56716C29.661 8.21305 29.821 7.41344 29.3753 6.86514C26.4381 3.22121 21.9466 0.902344 16.9066 0.902344C11.8665 0.902344 7.37505 3.23263 4.43788 6.86514C4.00359 7.41344 4.16358 8.21305 4.75787 8.56716L8.7922 10.8974Z" fill="#B7B7B7"/>
<path d="M25.6379 14.1987C25.9236 15.124 26.0608 16.1178 26.0379 17.1458C25.9122 21.9206 22.0264 25.8501 17.2493 26.0329C12.0378 26.2271 7.75203 22.0691 7.75203 16.9059C7.75203 15.9693 7.88917 15.0668 8.15203 14.2101C8.31203 13.6961 8.09489 13.1478 7.63774 12.8851L3.60341 10.5548C2.99769 10.2121 2.22053 10.4748 1.9691 11.1145C1.21481 13.045 0.837672 15.1468 0.894816 17.3629C1.13482 25.8273 8.04917 32.7039 16.5178 32.8981C25.5236 33.1037 32.8951 25.8616 32.8951 16.9059C32.8951 14.8612 32.5066 12.9079 31.8094 11.1145C31.558 10.4634 30.7808 10.2007 30.1751 10.5548L26.1408 12.8851C25.695 13.1364 25.4779 13.6961 25.6379 14.1987Z" fill="#B7B7B7"/>
</svg>
