<svg viewBox="0 0 54 48" fill="none" xmlns="http://www.w3.org/2000/svg">
<path d="M53.8338 27.6844C53.8338 30.9815 51.167 33.6481 47.8701 33.6481C44.573 33.6481 41.9062 30.9815 41.9062 27.6844C41.9062 24.3873 44.573 21.7207 47.8701 21.7207C51.167 21.7207 53.8338 24.3873 53.8338 27.6844Z" fill="#B7B7B7"/>
<path d="M32.2576 28.6045C38.9971 26.8347 42.9244 20.2163 42.9244 14.7375C42.9244 9.08884 38.6334 -1.74765 22.3907 0.240268C22.3907 0.240268 1.73577 2.44637 0.0872661 23.5377C-1.34306 41.744 15.142 50.0108 25.1302 47.5866V38.8349C25.1302 38.8349 25.3483 35.4652 24.4756 32.1439C27.7241 37.5742 33.809 45.5987 41.4698 45.5987C51.7488 45.5987 52.4034 34.6166 52.4034 34.6166C52.4034 34.6166 42.7546 43.2229 32.2576 28.6045ZM18.1239 21.6952V36.1198C9.49345 34.5196 8.64499 22.7135 12.1845 16.6284C18.1725 6.30098 33.4455 6.7859 33.4455 15.6344C33.4212 24.4831 18.1239 21.6952 18.1239 21.6952Z" fill="#B7B7B7"/>
</svg>
